<mxfile host="app.diagrams.net" modified="2022-03-19T04:25:29.617Z" agent="5.0 (Windows NT 10.0; Win64; x64) AppleWebKit/537.36 (KHTML, like Gecko) Chrome/99.0.4844.74 Safari/537.36" etag="rU4TKIzGYHDS4PndhOpv" version="17.1.3" type="github">
  <diagram id="C5RBs43oDa-KdzZeNtuy" name="Page-1">
    <mxGraphModel dx="1550" dy="856" grid="1" gridSize="10" guides="1" tooltips="1" connect="1" arrows="1" fold="1" page="1" pageScale="1" pageWidth="827" pageHeight="1169" math="0" shadow="0">
      <root>
        <mxCell id="WIyWlLk6GJQsqaUBKTNV-0" />
        <mxCell id="WIyWlLk6GJQsqaUBKTNV-1" parent="WIyWlLk6GJQsqaUBKTNV-0" />
        <mxCell id="xuw-7IgbEcyoNIdRHC2A-4" value="&lt;b&gt;OurComparable&lt;/b&gt;" style="rounded=0;whiteSpace=wrap;html=1;" parent="WIyWlLk6GJQsqaUBKTNV-1" vertex="1">
          <mxGeometry x="50" y="110" width="140" height="35" as="geometry" />
        </mxCell>
        <mxCell id="xuw-7IgbEcyoNIdRHC2A-5" value="&lt;span style=&quot;text-align: left&quot;&gt;compareTo(Object)&lt;/span&gt;" style="rounded=0;whiteSpace=wrap;html=1;" parent="WIyWlLk6GJQsqaUBKTNV-1" vertex="1">
          <mxGeometry x="190" y="125" width="110" height="20" as="geometry" />
        </mxCell>
        <mxCell id="xuw-7IgbEcyoNIdRHC2A-6" value="&lt;b&gt;Dog&lt;/b&gt;" style="rounded=0;whiteSpace=wrap;html=1;" parent="WIyWlLk6GJQsqaUBKTNV-1" vertex="1">
          <mxGeometry x="470" y="180" width="140" height="40" as="geometry" />
        </mxCell>
        <mxCell id="xuw-7IgbEcyoNIdRHC2A-7" value="&lt;span style=&quot;text-align: left&quot;&gt;compareTo(Dog)&lt;/span&gt;" style="rounded=0;whiteSpace=wrap;html=1;" parent="WIyWlLk6GJQsqaUBKTNV-1" vertex="1">
          <mxGeometry x="610" y="190" width="100" height="20" as="geometry" />
        </mxCell>
        <mxCell id="9hq599Uccc-IvX8OSh5c-0" value="&lt;b&gt;Comparable&amp;lt;Dog&amp;gt;&lt;/b&gt;" style="rounded=0;whiteSpace=wrap;html=1;" vertex="1" parent="WIyWlLk6GJQsqaUBKTNV-1">
          <mxGeometry x="470" y="110" width="140" height="40" as="geometry" />
        </mxCell>
        <mxCell id="9hq599Uccc-IvX8OSh5c-1" value="&lt;span style=&quot;text-align: left&quot;&gt;compareTo(Dog)&lt;/span&gt;" style="rounded=0;whiteSpace=wrap;html=1;" vertex="1" parent="WIyWlLk6GJQsqaUBKTNV-1">
          <mxGeometry x="610" y="130" width="100" height="20" as="geometry" />
        </mxCell>
        <mxCell id="9hq599Uccc-IvX8OSh5c-3" value="&lt;b&gt;Dog&lt;/b&gt;" style="rounded=0;whiteSpace=wrap;html=1;" vertex="1" parent="WIyWlLk6GJQsqaUBKTNV-1">
          <mxGeometry x="50" y="195" width="140" height="30" as="geometry" />
        </mxCell>
        <mxCell id="9hq599Uccc-IvX8OSh5c-4" value="&lt;span style=&quot;text-align: left&quot;&gt;compareTo(Object)&lt;/span&gt;" style="rounded=0;whiteSpace=wrap;html=1;" vertex="1" parent="WIyWlLk6GJQsqaUBKTNV-1">
          <mxGeometry x="190" y="205" width="120" height="20" as="geometry" />
        </mxCell>
        <mxCell id="9hq599Uccc-IvX8OSh5c-5" value="" style="endArrow=classic;html=1;rounded=0;" edge="1" parent="WIyWlLk6GJQsqaUBKTNV-1">
          <mxGeometry width="50" height="50" relative="1" as="geometry">
            <mxPoint x="120" y="190" as="sourcePoint" />
            <mxPoint x="119.5" y="145" as="targetPoint" />
            <Array as="points">
              <mxPoint x="119.5" y="190" />
            </Array>
          </mxGeometry>
        </mxCell>
        <mxCell id="9hq599Uccc-IvX8OSh5c-6" value="" style="shape=flexArrow;endArrow=classic;html=1;rounded=0;" edge="1" parent="WIyWlLk6GJQsqaUBKTNV-1">
          <mxGeometry width="50" height="50" relative="1" as="geometry">
            <mxPoint x="340" y="230" as="sourcePoint" />
            <mxPoint x="450" y="230" as="targetPoint" />
            <Array as="points">
              <mxPoint x="350" y="230" />
            </Array>
          </mxGeometry>
        </mxCell>
        <mxCell id="9hq599Uccc-IvX8OSh5c-7" value="with OurComparable" style="text;html=1;strokeColor=none;fillColor=none;align=center;verticalAlign=middle;whiteSpace=wrap;rounded=0;" vertex="1" parent="WIyWlLk6GJQsqaUBKTNV-1">
          <mxGeometry x="80" y="60" width="120" height="40" as="geometry" />
        </mxCell>
        <mxCell id="9hq599Uccc-IvX8OSh5c-8" value="with Java Comparable&amp;lt;T&amp;gt;" style="text;html=1;strokeColor=none;fillColor=none;align=center;verticalAlign=middle;whiteSpace=wrap;rounded=0;" vertex="1" parent="WIyWlLk6GJQsqaUBKTNV-1">
          <mxGeometry x="520" y="70" width="160" height="20" as="geometry" />
        </mxCell>
        <mxCell id="9hq599Uccc-IvX8OSh5c-9" value="" style="shape=flexArrow;endArrow=classic;html=1;rounded=0;" edge="1" parent="WIyWlLk6GJQsqaUBKTNV-1">
          <mxGeometry width="50" height="50" relative="1" as="geometry">
            <mxPoint x="544.5" y="360" as="sourcePoint" />
            <mxPoint x="544.5" y="460" as="targetPoint" />
          </mxGeometry>
        </mxCell>
        <mxCell id="9hq599Uccc-IvX8OSh5c-10" value="&lt;b&gt;Comparator&amp;lt;Dog&amp;gt;&lt;/b&gt;" style="rounded=0;whiteSpace=wrap;html=1;" vertex="1" parent="WIyWlLk6GJQsqaUBKTNV-1">
          <mxGeometry x="50" y="560" width="180" height="60" as="geometry" />
        </mxCell>
        <mxCell id="9hq599Uccc-IvX8OSh5c-11" value="&lt;span style=&quot;text-align: left&quot;&gt;compare(Dog, Dog)&lt;/span&gt;" style="rounded=0;whiteSpace=wrap;html=1;" vertex="1" parent="WIyWlLk6GJQsqaUBKTNV-1">
          <mxGeometry x="230" y="585" width="130" height="30" as="geometry" />
        </mxCell>
        <mxCell id="9hq599Uccc-IvX8OSh5c-12" value="&lt;b&gt;NameComparator&lt;/b&gt;" style="rounded=0;whiteSpace=wrap;html=1;" vertex="1" parent="WIyWlLk6GJQsqaUBKTNV-1">
          <mxGeometry x="50" y="670" width="180" height="60" as="geometry" />
        </mxCell>
        <mxCell id="9hq599Uccc-IvX8OSh5c-13" value="&lt;span style=&quot;text-align: left&quot;&gt;compare(Dog, Dog)&lt;/span&gt;" style="rounded=0;whiteSpace=wrap;html=1;" vertex="1" parent="WIyWlLk6GJQsqaUBKTNV-1">
          <mxGeometry x="230" y="695" width="130" height="30" as="geometry" />
        </mxCell>
        <mxCell id="9hq599Uccc-IvX8OSh5c-14" value="" style="endArrow=classic;html=1;rounded=0;" edge="1" parent="WIyWlLk6GJQsqaUBKTNV-1">
          <mxGeometry width="50" height="50" relative="1" as="geometry">
            <mxPoint x="130" y="670" as="sourcePoint" />
            <mxPoint x="129.5" y="620" as="targetPoint" />
            <Array as="points">
              <mxPoint x="130" y="630" />
            </Array>
          </mxGeometry>
        </mxCell>
        <mxCell id="9hq599Uccc-IvX8OSh5c-17" value="" style="endArrow=classic;html=1;rounded=0;" edge="1" parent="WIyWlLk6GJQsqaUBKTNV-1">
          <mxGeometry width="50" height="50" relative="1" as="geometry">
            <mxPoint x="550" y="180" as="sourcePoint" />
            <mxPoint x="550" y="150" as="targetPoint" />
          </mxGeometry>
        </mxCell>
        <mxCell id="9hq599Uccc-IvX8OSh5c-18" value="&lt;b&gt;Maximizer&lt;/b&gt;" style="rounded=0;whiteSpace=wrap;html=1;" vertex="1" parent="WIyWlLk6GJQsqaUBKTNV-1">
          <mxGeometry x="470" y="270" width="150" height="45" as="geometry" />
        </mxCell>
        <mxCell id="9hq599Uccc-IvX8OSh5c-19" value="&lt;span style=&quot;text-align: left&quot;&gt;max(Comparable[ ])&lt;/span&gt;" style="rounded=0;whiteSpace=wrap;html=1;" vertex="1" parent="WIyWlLk6GJQsqaUBKTNV-1">
          <mxGeometry x="620" y="285" width="110" height="25" as="geometry" />
        </mxCell>
        <mxCell id="9hq599Uccc-IvX8OSh5c-20" value="&lt;b&gt;Maximizer&lt;/b&gt;" style="rounded=0;whiteSpace=wrap;html=1;" vertex="1" parent="WIyWlLk6GJQsqaUBKTNV-1">
          <mxGeometry x="50" y="275" width="150" height="45" as="geometry" />
        </mxCell>
        <mxCell id="9hq599Uccc-IvX8OSh5c-21" value="&lt;span style=&quot;text-align: left&quot;&gt;max(OurComparable[ ])&lt;/span&gt;" style="rounded=0;whiteSpace=wrap;html=1;" vertex="1" parent="WIyWlLk6GJQsqaUBKTNV-1">
          <mxGeometry x="200" y="290" width="130" height="20" as="geometry" />
        </mxCell>
        <mxCell id="9hq599Uccc-IvX8OSh5c-24" value="&lt;b&gt;Dog&lt;/b&gt;" style="rounded=0;whiteSpace=wrap;html=1;" vertex="1" parent="WIyWlLk6GJQsqaUBKTNV-1">
          <mxGeometry x="490" y="630" width="140" height="40" as="geometry" />
        </mxCell>
        <mxCell id="9hq599Uccc-IvX8OSh5c-25" value="&lt;span style=&quot;text-align: left&quot;&gt;compareTo(Dog)&lt;/span&gt;" style="rounded=0;whiteSpace=wrap;html=1;" vertex="1" parent="WIyWlLk6GJQsqaUBKTNV-1">
          <mxGeometry x="630" y="640" width="100" height="20" as="geometry" />
        </mxCell>
        <mxCell id="9hq599Uccc-IvX8OSh5c-26" value="&lt;b&gt;Comparable&amp;lt;Dog&amp;gt;&lt;/b&gt;" style="rounded=0;whiteSpace=wrap;html=1;" vertex="1" parent="WIyWlLk6GJQsqaUBKTNV-1">
          <mxGeometry x="490" y="560" width="140" height="40" as="geometry" />
        </mxCell>
        <mxCell id="9hq599Uccc-IvX8OSh5c-27" value="&lt;span style=&quot;text-align: left&quot;&gt;compareTo(Dog)&lt;/span&gt;" style="rounded=0;whiteSpace=wrap;html=1;" vertex="1" parent="WIyWlLk6GJQsqaUBKTNV-1">
          <mxGeometry x="630" y="580" width="100" height="20" as="geometry" />
        </mxCell>
        <mxCell id="9hq599Uccc-IvX8OSh5c-28" value="with Java Comparable&amp;lt;T&amp;gt; and Comparator&amp;lt;T&amp;gt;" style="text;html=1;strokeColor=none;fillColor=none;align=center;verticalAlign=middle;whiteSpace=wrap;rounded=0;" vertex="1" parent="WIyWlLk6GJQsqaUBKTNV-1">
          <mxGeometry x="230" y="500" width="336" height="20" as="geometry" />
        </mxCell>
        <mxCell id="9hq599Uccc-IvX8OSh5c-29" value="" style="endArrow=classic;html=1;rounded=0;" edge="1" parent="WIyWlLk6GJQsqaUBKTNV-1">
          <mxGeometry width="50" height="50" relative="1" as="geometry">
            <mxPoint x="570" y="630" as="sourcePoint" />
            <mxPoint x="570" y="600" as="targetPoint" />
          </mxGeometry>
        </mxCell>
        <mxCell id="9hq599Uccc-IvX8OSh5c-30" value="&lt;b&gt;Maximizer&lt;/b&gt;" style="rounded=0;whiteSpace=wrap;html=1;" vertex="1" parent="WIyWlLk6GJQsqaUBKTNV-1">
          <mxGeometry x="490" y="725" width="150" height="45" as="geometry" />
        </mxCell>
        <mxCell id="9hq599Uccc-IvX8OSh5c-31" value="&lt;span style=&quot;text-align: left&quot;&gt;max(Comparable[ ])&lt;/span&gt;" style="rounded=0;whiteSpace=wrap;html=1;" vertex="1" parent="WIyWlLk6GJQsqaUBKTNV-1">
          <mxGeometry x="640" y="740" width="110" height="25" as="geometry" />
        </mxCell>
      </root>
    </mxGraphModel>
  </diagram>
</mxfile>
